<svg width="24" height="24" viewBox="0 0 24 24" fill="none" xmlns="http://www.w3.org/2000/svg">
    <rect width="24" height="24" rx="2" fill="#31D0AA"/>
        <g clip-path="url(#clip0_2_6771)">
            <path d="M5.66667 8H17C17.2189 8 17.4356 7.95689 17.6378 7.87313C17.84 7.78937 18.0237 7.66661 18.1785 7.51184C18.3333 7.35708 18.456 7.17335 18.5398 6.97114C18.6236 6.76893 18.6667 6.5522 18.6667 6.33333V5.66667C18.6667 5.22464 18.4911 4.80072 18.1785 4.48816C17.866 4.17559 17.442 4 17 4H5.66667C5.22464 4 4.80072 4.17559 4.48816 4.48816C4.17559 4.80072 4 5.22464 4 5.66667V6.33333C4 6.77536 4.17559 7.19928 4.48816 7.51184C4.80072 7.82441 5.22464 8 5.66667 8V8ZM6.42667 6C6.42667 5.85364 6.47007 5.71057 6.55138 5.58888C6.63269 5.46719 6.74826 5.37234 6.88348 5.31633C7.0187 5.26032 7.16749 5.24567 7.31103 5.27422C7.45458 5.30277 7.58644 5.37325 7.68993 5.47674C7.79342 5.58023 7.86389 5.71209 7.89245 5.85563C7.921 5.99918 7.90635 6.14797 7.85034 6.28319C7.79433 6.4184 7.69948 6.53398 7.57779 6.61529C7.4561 6.6966 7.31302 6.74 7.16667 6.74C7.06924 6.74089 6.97261 6.72236 6.88243 6.68548C6.79225 6.64861 6.71032 6.59414 6.64142 6.52524C6.57253 6.45635 6.51806 6.37442 6.48118 6.28424C6.44431 6.19405 6.42578 6.09743 6.42667 6ZM9 6C8.99868 5.85176 9.04152 5.70649 9.12305 5.58269C9.20459 5.45888 9.32113 5.36215 9.45784 5.30481C9.59454 5.24747 9.74522 5.23212 9.89068 5.26072C10.0361 5.28932 10.1698 5.36057 10.2746 5.46539C10.3794 5.57021 10.4507 5.70387 10.4793 5.84932C10.5079 5.99478 10.4925 6.14546 10.4352 6.28216C10.3779 6.41887 10.2811 6.53541 10.1573 6.61695C10.0335 6.69848 9.88824 6.74132 9.74 6.74C9.54374 6.74 9.35552 6.66204 9.21674 6.52326C9.07796 6.38448 9 6.19626 9 6V6Z" fill="white"/>
            <path d="M15.6667 10.3333C16.5463 10.3309 17.4126 10.5487 18.1867 10.9667C18.2373 10.9936 18.2942 11.0068 18.3515 11.0048C18.4089 11.0028 18.4647 10.9857 18.5133 10.9553C18.562 10.9249 18.6018 10.8822 18.6287 10.8316C18.6556 10.7809 18.6687 10.724 18.6667 10.6667V10.3333C18.6667 9.8913 18.4911 9.46737 18.1785 9.15481C17.8659 8.84225 17.442 8.66666 17 8.66666H5.66667C5.22464 8.66666 4.80072 8.84225 4.48816 9.15481C4.17559 9.46737 4 9.8913 4 10.3333V11C4 11.442 4.17559 11.8659 4.48816 12.1785C4.80072 12.4911 5.22464 12.6667 5.66667 12.6667H11.0933C11.1457 12.6659 11.1971 12.6528 11.2434 12.6285C11.2897 12.6042 11.3297 12.5693 11.36 12.5267C11.8545 11.8478 12.5022 11.2953 13.2506 10.9142C13.999 10.533 14.8268 10.334 15.6667 10.3333V10.3333ZM10.4867 10.6667C10.488 10.8146 10.4453 10.9596 10.3641 11.0833C10.2828 11.2069 10.1667 11.3037 10.0304 11.3612C9.89407 11.4188 9.74374 11.4345 9.59846 11.4064C9.45319 11.3784 9.31952 11.3078 9.21443 11.2037C9.10934 11.0995 9.03756 10.9665 9.00821 10.8215C8.97885 10.6764 8.99324 10.526 9.04955 10.3891C9.10587 10.2523 9.20156 10.1353 9.32449 10.053C9.44742 9.97063 9.59204 9.92666 9.74 9.92666C9.83774 9.92578 9.93468 9.94427 10.0252 9.98106C10.1158 10.0179 10.1982 10.0722 10.2676 10.141C10.337 10.2098 10.3921 10.2917 10.4297 10.3819C10.4673 10.4721 10.4867 10.5689 10.4867 10.6667V10.6667ZM7.90667 10.6667C7.90667 10.813 7.86327 10.9561 7.78195 11.0778C7.70064 11.1995 7.58507 11.2943 7.44985 11.3503C7.31463 11.4063 7.16585 11.421 7.0223 11.3924C6.87875 11.3639 6.7469 11.2934 6.64341 11.1899C6.53992 11.0864 6.46944 10.9546 6.44089 10.811C6.41233 10.6675 6.42699 10.5187 6.483 10.3835C6.539 10.2483 6.63385 10.1327 6.75554 10.0514C6.87724 9.97006 7.02031 9.92666 7.16667 9.92666C7.26409 9.92577 7.36072 9.9443 7.4509 9.98117C7.54108 10.018 7.62302 10.0725 7.69191 10.1414C7.7608 10.2103 7.81528 10.2922 7.85215 10.3824C7.88902 10.4726 7.90756 10.5692 7.90667 10.6667V10.6667Z" fill="white"/>
            <path d="M5.66667 17.3333H10.16C10.2113 17.332 10.2616 17.3191 10.3072 17.2956C10.3528 17.272 10.3925 17.2385 10.4233 17.1974C10.454 17.1564 10.4751 17.1089 10.485 17.0586C10.4948 17.0082 10.4931 16.9563 10.48 16.9067C10.2321 15.8679 10.3018 14.7787 10.68 13.78C10.6997 13.7302 10.7068 13.6764 10.7008 13.6232C10.6948 13.5701 10.6758 13.5192 10.6455 13.4751C10.6152 13.431 10.5745 13.395 10.5271 13.3703C10.4796 13.3455 10.4268 13.3329 10.3733 13.3333H5.66667C5.22464 13.3333 4.80072 13.5089 4.48816 13.8215C4.17559 14.134 4 14.558 4 15V15.6667C4 16.1087 4.17559 16.5326 4.48816 16.8452C4.80072 17.1577 5.22464 17.3333 5.66667 17.3333ZM6.42667 15.3333C6.42667 15.187 6.47007 15.0439 6.55138 14.9222C6.63269 14.8005 6.74826 14.7057 6.88348 14.6497C7.0187 14.5936 7.16749 14.579 7.31103 14.6075C7.45458 14.6361 7.58644 14.7066 7.68993 14.8101C7.79342 14.9136 7.86389 15.0454 7.89245 15.189C7.921 15.3325 7.90635 15.4813 7.85034 15.6165C7.79433 15.7517 7.69948 15.8673 7.57779 15.9486C7.4561 16.0299 7.31302 16.0733 7.16667 16.0733C7.06924 16.0742 6.97261 16.0557 6.88243 16.0188C6.79225 15.9819 6.71032 15.9275 6.64142 15.8586C6.57253 15.7897 6.51806 15.7077 6.48118 15.6176C6.44431 15.5274 6.42578 15.4308 6.42667 15.3333V15.3333Z" fill="white"/>
            <path d="M11.3333 15.6667C11.3333 16.5237 11.5875 17.3615 12.0636 18.0741C12.5398 18.7868 13.2165 19.3422 14.0084 19.6702C14.8002 19.9981 15.6715 20.0839 16.512 19.9167C17.3526 19.7495 18.1247 19.3368 18.7308 18.7308C19.3368 18.1248 19.7495 17.3527 19.9167 16.5121C20.0839 15.6715 19.9981 14.8002 19.6701 14.0084C19.3421 13.2166 18.7867 12.5398 18.0741 12.0636C17.3615 11.5875 16.5237 11.3333 15.6666 11.3333C14.5179 11.3351 13.4167 11.7922 12.6045 12.6045C11.7922 13.4168 11.3351 14.5179 11.3333 15.6667V15.6667ZM14.1733 15.5533L15.04 16.42C15.0561 16.4369 15.0759 16.4499 15.0979 16.458C15.1199 16.4661 15.1434 16.4691 15.1666 16.4667C15.1908 16.466 15.2145 16.4604 15.2363 16.4501C15.2581 16.4397 15.2775 16.4249 15.2933 16.4067L17.1133 14C17.1929 13.8939 17.3113 13.8238 17.4426 13.805C17.5739 13.7863 17.7072 13.8204 17.8133 13.9C17.9194 13.9796 17.9895 14.098 18.0083 14.2293C18.027 14.3606 17.9929 14.4939 17.9133 14.6L16 17.16C15.9136 17.2733 15.8041 17.3669 15.6789 17.4347C15.5536 17.5025 15.4154 17.5429 15.2733 17.5533H15.2C15.0681 17.5535 14.9375 17.527 14.816 17.4754C14.6946 17.4239 14.5848 17.3483 14.4933 17.2533L13.4933 16.2533C13.405 16.1586 13.3569 16.0332 13.3592 15.9037C13.3615 15.7741 13.414 15.6505 13.5056 15.5589C13.5972 15.4673 13.7208 15.4148 13.8503 15.4126C13.9798 15.4103 14.1052 15.4584 14.2 15.5467L14.1733 15.5533Z" fill="white"/>
        </g>
    <defs>
        <clipPath id="clip0_2_6771">
            <rect width="16" height="16" fill="white" transform="translate(4 4)"/>
        </clipPath>
    </defs>
</svg>
